<svg width="200" height="191" viewBox="0 0 200 191" fill="none" xmlns="http://www.w3.org/2000/svg">
<path fill-rule="evenodd" clip-rule="evenodd" d="M105.675 3.79998L130.041 63.4179L194.292 68.1673C199.793 68.5683 202.112 75.496 197.647 79.1363L148.622 120.598L163.966 183.188C165.25 188.464 159.441 192.812 154.65 189.767L99.9985 155.917L45.2138 189.85C40.5559 192.729 34.7548 188.48 36.0315 183.188L51.3751 120.598L2.17482 78.9848C-2.03317 75.4208 0.25422 68.5588 5.70619 68.1756V68.1675L69.957 63.4181L94.323 3.80017C96.4343 -1.37445 103.655 -1.15784 105.675 3.80017L105.675 3.79998ZM120.133 71.5735L99.9997 22.2981L80.0571 71.106C79.3218 73.4521 77.2186 75.2211 74.6229 75.4054L21.5911 79.3281L62.2101 113.686L62.202 113.695C63.9139 115.147 64.7649 117.493 64.1975 119.822L51.5264 171.535L96.6781 143.57C98.6069 142.335 101.144 142.227 103.223 143.503L148.474 171.534L135.878 120.147C135.201 117.876 135.87 115.323 137.799 113.694L178.418 79.3357L125.386 75.4131V75.3968C123.123 75.2207 121.046 73.8104 120.136 71.5735L120.133 71.5735Z" fill="#FFB755"/>
</svg>
