<svg width="39" height="39" viewBox="0 0 39 39" fill="none" xmlns="http://www.w3.org/2000/svg">
<path d="M21.5247 8.77767L25.119 1.07329C25.3474 0.785079 25.7926 0.933791 25.7615 1.31423L24.2135 9.50165L24.292 9.86018L24.8076 9.81292L30.4839 3.75362L30.9349 3.67753C31.1863 3.76284 31.0906 4.1721 30.9845 4.34618C29.9314 6.65991 27.9993 9.1339 27.0719 11.4419C26.9207 11.8188 27.0465 12.0655 27.479 11.9422C29.8356 10.7824 32.1218 9.24226 34.4784 8.11249C34.6906 8.01104 34.9859 7.78508 35.2143 7.92688L35.3643 8.20701L35.1693 8.52866L29.2012 14.2052C28.8505 14.7148 29.1793 14.7897 29.6522 14.7505C31.7527 14.573 34.4115 13.7787 36.5708 13.4132C36.9584 13.3475 38.0081 13.0063 38.0611 13.5285L37.9089 13.8351L30.3778 17.3997C30.1286 17.53 30.0259 17.7456 30.2105 17.9715L38.5387 19.0921C38.8605 19.1532 39.0935 19.2788 38.9632 19.6547C38.9055 19.823 38.4487 19.8529 38.2722 19.8818C35.873 20.2714 33.0089 20.3095 30.6973 20.8375C30.5104 20.8801 30.0652 20.9343 30.0894 21.2087L30.3766 21.566L38.0127 25.2113C38.1177 25.4234 38.0692 25.6067 37.8489 25.6955L29.6511 24.2153L29.1066 24.289L29.1551 24.7133L35.2143 30.4844C35.4046 30.6746 35.407 30.8498 35.2143 31.0366L35.0748 31.0838L27.3648 26.9509C26.6808 27.027 27.1803 27.6841 27.3695 28.0553C28.5103 30.2976 29.8529 32.4465 31.0145 34.6795C31.1079 34.8455 31.1598 35.2179 30.9372 35.2894L30.3847 35.0796C28.7467 33.3445 27.1561 31.5496 25.4927 29.8388C25.1375 29.4733 24.2908 28.377 24.2124 29.4595L25.7603 37.557C25.8215 38.0423 25.3082 38.2026 25.0867 37.7634L21.5524 30.2284C21.3171 29.9817 20.9688 30.0405 20.9099 30.3979L19.8752 38.6234C19.3389 39.5053 19.1774 38.6349 19.0828 38.0804C18.6756 35.671 18.6525 32.8373 18.1289 30.5086C18.0481 30.1489 17.9455 29.9195 17.5498 30.157L13.9232 37.8072C13.7214 38.0677 13.4538 38.138 13.3096 37.7979L14.8103 29.4318C14.8818 29.1275 14.6084 28.8762 14.3443 29.0549C13.5126 29.6612 8.72102 35.2594 8.28731 35.3009C8.03585 35.3251 7.80169 35.0899 7.91704 34.8386L12.0108 27.2806C11.9796 27.0916 11.8216 26.9244 11.6163 26.9682L4.1186 31.0423L3.84523 31.0389C3.48764 30.7783 3.73911 30.4959 3.97672 30.2515C5.82461 28.3505 8.03239 26.6166 9.90219 24.7144C10.1917 24.1507 9.74301 24.1818 9.31276 24.2176C6.79239 24.4239 3.86368 25.5548 1.36869 25.7243C1.23719 25.7335 1.12761 25.7278 1.0111 25.6609L1.05609 25.1133L8.80291 21.4173C9.24009 20.8294 8.03585 20.7971 7.63674 20.736C5.2098 20.3636 2.74134 20.2103 0.319012 19.7988C-0.0328019 19.733 -0.0766328 19.4541 0.104465 19.1843C2.53832 18.7831 5.01256 18.6021 7.45218 18.2321C7.77055 18.1836 8.53877 18.1052 8.77754 18.0003C8.98286 17.9104 8.90096 17.6891 8.84444 17.5127L1.04686 13.7556C0.910751 13.3809 0.973041 13.2057 1.38714 13.2276L9.49039 14.7678C9.73032 14.8128 10.0487 14.6352 9.97832 14.3701L3.87522 8.58975L3.66875 8.13669C3.79101 7.87846 4.02978 7.82312 4.27663 7.95916L11.554 11.9699C11.8781 12.1151 12.1007 11.7543 11.9681 11.4626C10.8354 9.34141 9.58267 7.27438 8.47302 5.14279C8.2354 4.68511 7.37951 3.43544 8.47994 3.76054L14.365 9.89476L14.6661 9.86364L14.8276 9.60771L13.2877 1.07674C13.6199 0.800062 13.7514 0.928025 13.9509 1.22661C15.2567 3.18643 16.1495 6.38785 17.386 8.52289C17.4402 8.61512 17.4875 8.75576 17.5775 8.81225C18.1508 9.17309 18.175 8.12055 18.2315 7.73896C18.5614 5.52552 18.6191 2.29183 19.1901 0.258234C19.212 0.180994 19.2143 0.0230567 19.3123 0L19.7599 0.0945261L20.9238 8.64855C21.0345 8.93676 21.2906 8.94598 21.5247 8.78343V8.77767Z" fill="black"/>
</svg>
