<svg width="31" height="27" viewBox="0 0 31 27" fill="none" xmlns="http://www.w3.org/2000/svg">
<path d="M7.99925 0.0181695C8.87284 -0.123584 10.1065 1.00487 10.7329 1.56949C11.7663 2.50124 14.0579 5.23675 15.4347 5.2702C16.7956 5.30365 18.8981 2.8158 19.8821 1.90874C20.549 1.29395 22.8558 -0.984455 23.5927 0.485636C24.2032 1.70407 23.08 4.73106 22.7891 6.09444C22.5363 7.28103 21.9926 9.12142 23.1595 9.91779C24.4607 10.8065 26.9583 11.1561 28.5059 11.6921C29.5314 12.0473 32.0106 12.9989 30.5512 14.3806C29.4662 15.4071 26.2953 15.916 24.8009 16.4297C22.9011 17.0827 22.2501 17.4004 22.522 19.5554C22.712 21.0653 23.2914 22.5378 23.572 24.0214C23.7628 25.028 24.1754 27.3566 22.4242 26.9536C21.1858 26.6685 18.6095 23.7427 17.4657 22.838C16.0627 21.7279 15.4275 21.4117 13.8743 22.5458C12.6112 23.4679 9.80445 26.6845 8.53342 26.9576C7.98812 27.0747 7.51198 26.9465 7.322 26.3787C6.81247 24.856 8.19559 21.4516 8.43246 19.7258C8.60019 18.5026 8.72419 17.6816 7.53741 16.9951C5.86654 16.0275 1.02166 15.5115 0.152042 14.0374C-0.569722 12.8134 1.466 12.0457 2.32449 11.7399C3.78869 11.2183 5.39597 10.9993 6.83155 10.398C8.5358 9.68366 8.68127 9.17319 8.43167 7.35509C8.23295 5.9049 7.64631 4.41729 7.38082 2.97428C7.23535 2.18189 6.87129 0.201334 7.99845 0.0181695H7.99925Z" fill="black"/>
</svg>
