<svg width="46" height="46" viewBox="0 0 46 46" fill="none" xmlns="http://www.w3.org/2000/svg">
<path d="M39.9226 18.9959C40.589 19.6657 43.8752 19.1526 44.9725 19.3322C45.4379 19.4084 45.7984 19.8424 45.8802 20.2909C46.0569 21.2696 46.0095 24.088 45.9204 25.1501C45.8587 25.8831 45.6662 26.4063 44.8447 26.5169C43.5923 26.6851 41.7423 26.2755 40.5603 26.5414C39.7847 26.7153 39.4156 27.5575 39.7746 28.2747C40.1667 29.0594 43.1269 30.1862 43.9111 30.889C44.24 31.4064 44.2558 31.76 44.0346 32.3176C43.7459 33.0434 42.1574 35.7699 41.6705 36.418C41.4651 36.6926 41.2009 36.9599 40.859 37.0562C39.7287 37.3724 37.0213 34.5741 35.6511 34.8515C33.2353 36.0947 37.5628 39.3284 37.0974 40.8878C36.8159 41.8278 33.0156 43.3915 32.1351 44.1259C31.8881 44.2309 31.654 44.2064 31.4041 44.1259C30.1876 43.7379 29.1922 39.6993 27.8938 39.5756C25.3746 39.3371 27.2432 44.5945 26.2321 45.5445C26.0741 45.6925 25.6604 45.8679 25.4407 45.9024C24.5229 46.0432 21.6676 46.0188 20.7096 45.911C18.0425 45.6106 20.1653 41.1839 19.0608 39.9436C17.1477 37.7935 15.8579 44.0411 14.3757 44.1863C14.0784 44.215 13.9362 44.1288 13.6848 44.0282C12.2371 43.4461 10.6888 42.1052 9.21515 41.4599C7.8191 40.1592 11.1843 37.2732 11.1153 35.9466C11.0981 35.6031 10.6643 34.9722 10.3369 34.8759C9.08732 34.5051 6.82089 36.8119 5.55697 37.0835C4.86469 37.2315 4.46397 36.6523 4.14655 36.1838C3.78318 35.6463 1.79107 32.2314 1.73793 31.8347C1.7049 31.5947 1.74512 31.4323 1.8514 31.2181C2.29521 30.3314 5.19647 29.2506 6.05249 28.5176C6.36847 28.1453 6.35123 27.444 6.11281 27.0286C5.31137 25.6345 0.419439 27.5877 0.104896 25.5669C-0.0444764 24.6112 -0.0214986 21.3975 0.093403 20.3986C0.169525 19.739 0.505612 19.3983 1.1706 19.3207C2.24781 19.1957 5.37313 19.6613 5.98929 18.9672C6.27654 18.6424 6.36846 18.1149 6.24351 17.701C6.03956 17.024 3.11675 15.7549 2.40436 15.2189C1.8356 14.7906 1.57994 14.3867 1.85714 13.6896C2.08407 13.1176 4.14225 9.47711 4.48408 9.12643C4.70957 8.89503 5.24674 8.69525 5.56272 8.74843L9.93615 11.0681C13.3358 10.0822 7.71999 6.22178 9.08301 4.52872C9.28983 4.27145 12.79 2.24065 13.3056 1.99919C13.9477 1.70025 14.5423 1.43148 15.1039 2.08111C15.8536 2.95063 16.6363 5.3077 17.4033 5.96021C17.9118 6.39281 18.729 6.36406 19.1254 5.81073C19.8751 4.7673 18.571 0.360737 20.138 0.0689788C21.8658 0.209828 23.9082 -0.133669 25.5944 0.0617944C25.8357 0.0905391 26.041 0.119282 26.2335 0.284564C27.2331 1.14547 25.3401 6.75643 28.0288 6.2419C28.9481 6.06656 30.1028 2.90464 30.8353 2.14722C31.3825 1.58239 31.7186 1.58095 32.398 1.87702C33.0242 2.15153 36.3563 4.05443 36.7283 4.44105C37.0615 4.78742 37.2253 5.05331 37.1276 5.55921C36.9538 6.45605 35.2877 8.39919 34.9215 9.39663C34.8181 12.9768 38.4734 9.58347 39.9298 8.94677C40.7843 8.57309 41.1865 8.73406 41.7265 9.49867C42.2364 10.2202 43.5951 12.5442 43.9298 13.3303C44.1897 13.9412 44.3951 14.4873 43.8364 15.0119C43.0063 15.7909 40.4842 16.6058 39.8795 17.3761C39.5305 17.8217 39.5276 18.5935 39.9226 18.9916V18.9959Z" fill="black"/>
</svg>
